<svg width="26" height="26" viewBox="0 0 26 26" fill="none" xmlns="http://www.w3.org/2000/svg">
<path d="M12.0291 0.932695C12.2794 -0.0810755 13.7206 -0.0810724 13.9709 0.932698L16.0231 9.24575C16.1121 9.60635 16.3936 9.88791 16.7543 9.97693L25.0673 12.0291C26.0811 12.2794 26.0811 13.7206 25.0673 13.9709L16.7543 16.0231C16.3936 16.1121 16.1121 16.3936 16.0231 16.7543L13.9709 25.0673C13.7206 26.0811 12.2794 26.0811 12.0291 25.0673L9.97693 16.7543C9.88791 16.3936 9.60635 16.1121 9.24575 16.0231L0.932695 13.9709C-0.0810755 13.7206 -0.0810725 12.2794 0.932698 12.0291L9.24575 9.97693C9.60635 9.88791 9.88791 9.60635 9.97693 9.24575L12.0291 0.932695Z" fill="#9FFF40"/>
</svg>
