<svg width="20" height="19" viewBox="0 0 20 19" fill="none" xmlns="http://www.w3.org/2000/svg">
<path d="M9.0402 0.78195C9.32068 -0.177129 10.6793 -0.177128 10.9598 0.781951L12.5616 6.25927C12.6574 6.58664 12.9134 6.84264 13.2407 6.93837L18.718 8.5402C19.6771 8.82068 19.6771 10.1793 18.718 10.4598L13.2407 12.0616C12.9134 12.1574 12.6574 12.4134 12.5616 12.7407L10.9598 18.218C10.6793 19.1771 9.32068 19.1771 9.0402 18.218L7.43837 12.7407C7.34264 12.4134 7.08664 12.1574 6.75927 12.0616L1.28195 10.4598C0.322871 10.1793 0.322872 8.82068 1.28195 8.5402L6.75927 6.93837C7.08664 6.84264 7.34264 6.58664 7.43837 6.25927L9.0402 0.78195Z" fill="black"/>
</svg>
