<svg width="24" height="24" viewBox="0 0 24 24" fill="none" xmlns="http://www.w3.org/2000/svg">
<path d="M15.597 13.69C15.4023 13.5823 14.4326 13.0708 14.2522 13.0016C14.0719 12.9285 13.9397 12.8939 13.8093 13.1093C13.6772 13.3227 13.3022 13.7977 13.1843 13.9419C13.07 14.0842 12.9539 14.1015 12.7593 13.9957C11.602 13.3727 10.8431 12.8843 10.0805 11.4748C9.8787 11.0998 10.2823 11.1267 10.6591 10.3171C10.7234 10.1749 10.6913 10.0537 10.6413 9.94602C10.5913 9.83834 10.1984 8.7961 10.0341 8.37113C9.87513 7.95769 9.71083 8.01538 9.59118 8.00769C9.47689 8 9.34652 8 9.21437 8C9.08222 8 8.8697 8.05384 8.68933 8.26344C8.50896 8.47689 8 8.99032 8 10.0326C8 11.0748 8.70541 12.0843 8.80184 12.2266C8.90185 12.3689 10.1894 14.5072 12.1664 15.4283C13.4165 16.0091 13.9058 16.0591 14.5308 15.9591C14.9112 15.8975 15.6952 15.4476 15.8577 14.9495C16.0202 14.4534 16.0202 14.0284 15.972 13.94C15.9238 13.8458 15.7916 13.7919 15.597 13.69Z" fill="#9FFF40"/>
<path d="M21.2231 8.125C20.7186 6.92634 19.9954 5.85045 19.0736 4.92634C18.1517 4.00446 17.0758 3.27902 15.875 2.77679C14.6473 2.26116 13.3437 2 12 2H11.9554C10.6027 2.0067 9.29245 2.27455 8.06032 2.80134C6.8706 3.31027 5.80365 4.03348 4.89072 4.95536C3.97778 5.87723 3.26127 6.94866 2.76574 8.14286C2.25236 9.37946 1.99343 10.6942 2.00013 12.0469C2.00682 13.596 2.37735 15.1339 3.07154 16.5089V19.9018C3.07154 20.4688 3.53136 20.9286 4.09831 20.9286H7.49336C8.86834 21.6228 10.4063 21.9933 11.9554 22H12.0022C13.3393 22 14.6361 21.7411 15.8571 21.2344C17.0513 20.7366 18.1249 20.0223 19.0446 19.1094C19.9664 18.1964 20.6919 17.1295 21.1985 15.9397C21.7253 14.7076 21.9932 13.3973 21.9999 12.0446C22.0066 10.6853 21.7432 9.36607 21.2231 8.125V8.125ZM17.8504 17.9018C16.2857 19.4509 14.2098 20.3036 12 20.3036H11.9621C10.6161 20.2969 9.27905 19.9621 8.09827 19.3326L7.91077 19.2321H4.76795V16.0893L4.6675 15.9018C4.03805 14.721 3.70323 13.3839 3.69653 12.0379C3.68761 9.8125 4.53804 7.72321 6.09829 6.14955C7.65631 4.57589 9.73887 3.70536 11.9643 3.69643H12.0022C13.1183 3.69643 14.2009 3.91295 15.2209 4.34152C16.2165 4.75893 17.1093 5.35937 17.8772 6.12723C18.6428 6.89286 19.2454 7.78795 19.6629 8.78348C20.0959 9.81473 20.3124 10.9085 20.3079 12.0379C20.2945 14.2612 19.4218 16.3438 17.8504 17.9018V17.9018Z" fill="#9FFF40"/>
</svg>
